<svg width="379" height="379" viewBox="0 0 379 379" fill="none" xmlns="http://www.w3.org/2000/svg">
<path d="M323.5 55.5C249.5 -18.5 129.5 -18.5 55.5 55.5C-18.5 129.5 -18.5 249.5 55.5 323.5C129.5 397.5 249.5 397.5 323.5 323.5C397.5 249.5 397.5 129.5 323.5 55.5ZM272.3 201.1L213.1 235.1L155.1 268.7C153.1 270.3 150.3 271.1 147.5 271.1C139.9 271.1 133.9 265.1 133.9 257.5V189.5V121.1C133.9 118.7 134.3 116.7 135.5 114.3C139.1 107.9 147.5 105.5 153.9 109.5L212.3 143.1C212.7 143.1 212.7 143.5 213.1 143.5L272.3 177.5C274.3 178.7 275.9 180.3 277.5 182.3C281.1 189.1 278.7 197.5 272.3 201.1Z" fill="#FFC030"/>
</svg>
