<svg width="1668" height="1685" viewBox="0 0 1668 1685" fill="none" xmlns="http://www.w3.org/2000/svg">
<path fill-rule="evenodd" clip-rule="evenodd" d="M975.176 0.666274C974.907 -0.0909958 973.901 -0.238704 973.426 0.409555L771.855 275.759C771.522 276.213 770.881 276.303 770.436 275.959L500.664 66.9817C500.029 66.4897 499.102 66.9096 499.053 67.7115L478.346 408.328C478.312 408.89 477.821 409.313 477.26 409.263L137.332 379.31C136.532 379.24 135.979 380.094 136.372 380.795L303.102 678.535C303.378 679.026 303.193 679.647 302.695 679.909L0.535285 838.49C-0.176093 838.863 -0.179042 839.88 0.530155 840.258L301.763 1000.59C302.26 1000.86 302.441 1001.48 302.163 1001.97L133.706 1298.73C133.309 1299.43 133.857 1300.29 134.657 1300.22L474.754 1272.25C475.315 1272.2 475.803 1272.63 475.834 1273.19L494.563 1613.92C494.607 1614.72 495.531 1615.15 496.169 1614.66L767.15 1407.25C767.597 1406.91 768.238 1407 768.568 1407.46L968.536 1683.97C969.007 1684.63 970.015 1684.48 970.287 1683.73L1086.12 1362.74C1086.31 1362.21 1086.9 1361.95 1087.42 1362.15L1405.14 1486.66C1405.89 1486.95 1406.66 1486.29 1406.48 1485.51L1330.39 1152.85C1330.26 1152.3 1330.62 1151.76 1331.17 1151.65L1665.77 1084.62C1666.55 1084.46 1666.84 1083.49 1666.27 1082.93L1422.41 844.22C1422.01 843.826 1422.01 843.178 1422.41 842.786L1667.66 605.501C1668.23 604.943 1667.95 603.966 1667.16 603.803L1332.96 534.832C1332.41 534.718 1332.06 534.172 1332.19 533.624L1410.21 201.419C1410.4 200.636 1409.63 199.968 1408.88 200.257L1090.44 322.918C1089.92 323.12 1089.33 322.849 1089.14 322.319L975.176 0.666274ZM851.191 1310.78C1109.99 1310.78 1319.78 1100.99 1319.78 842.19C1319.78 583.393 1109.99 373.597 851.191 373.597C592.394 373.597 382.597 583.393 382.597 842.19C382.597 1100.99 592.394 1310.78 851.191 1310.78Z" fill="#FFC030"/>
<circle cx="850.974" cy="841.974" r="323.539" fill="#FFC030"/>
</svg>
